<?xml version="1.0" encoding="utf-8"?>
<!-- Generator: Adobe Illustrator 17.0.0, SVG Export Plug-In . SVG Version: 6.00 Build 0)  -->
<!DOCTYPE svg PUBLIC "-//W3C//DTD SVG 1.1//EN" "http://www.w3.org/Graphics/SVG/1.1/DTD/svg11.dtd">
<svg version="1.1" id="Livello_1" xmlns="http://www.w3.org/2000/svg" xmlns:xlink="http://www.w3.org/1999/xlink" x="0px" y="0px"
	 width="960px" height="960px" viewBox="0 0 960 960" enable-background="new 0 0 960 960" xml:space="preserve">
<g>
	<g>
		<rect x="478.754" y="34.393" width="3.639" height="36.371"/>
	</g>
	<g>
		<rect x="428.071" y="50.76" transform="matrix(0.124 0.9923 -0.9923 0.124 443.2052 -396.8934)" width="36.654" height="3.637"/>
	</g>
	<g>
		
			<rect x="393.479" y="50.76" transform="matrix(0.2426 0.9701 -0.9701 0.2426 363.2074 -360.0845)" width="37.491" height="3.637"/>
	</g>
	<g>
		<rect x="358.626" y="50.759" transform="matrix(0.3512 0.9363 -0.9363 0.3512 294.5015 -319.853)" width="38.846" height="3.64"/>
	</g>
	<g>
		
			<rect x="323.544" y="50.757" transform="matrix(0.4472 0.8944 -0.8944 0.4472 237.1268 -278.5101)" width="40.663" height="3.642"/>
	</g>
	<g>
		<rect x="288.256" y="50.758" transform="matrix(0.53 0.848 -0.848 0.53 190.1551 -237.917)" width="42.889" height="3.641"/>
	</g>
	<g>
		<rect x="252.793" y="50.762" transform="matrix(0.6 0.8 -0.8 0.6 152.2811 -199.3924)" width="45.463" height="3.634"/>
	</g>
	<g>
		
			<rect x="217.186" y="50.76" transform="matrix(0.6585 0.7526 -0.7526 0.6585 121.9965 -163.6824)" width="48.327" height="3.637"/>
	</g>
	<g>
		<polygon points="224.25,105.468 187.776,72.731 190.202,70.025 226.676,102.762 		"/>
	</g>
	<g>
		
			<rect x="183.908" y="121.095" transform="matrix(0.7826 0.6225 -0.6225 0.7826 121.5846 -102.3164)" width="46.741" height="3.638"/>
	</g>
	<g>
		
			<rect x="185.004" y="156.263" transform="matrix(0.8215 0.5702 -0.5702 0.8215 127.1442 -90.0034)" width="44.655" height="3.637"/>
	</g>
	<g>
		<rect x="185.996" y="191.431" transform="matrix(0.86 0.5102 -0.5102 0.86 127.628 -78.765)" width="42.771" height="3.636"/>
	</g>
	<g>
		<polygon points="225.077,239.141 188.187,220.954 189.791,217.691 226.681,235.878 		"/>
	</g>
	<g>
		<polygon points="225.318,272.55 188.323,258.002 189.656,254.619 226.651,269.166 		"/>
	</g>
	<g>
		<polygon points="225.578,305.951 188.478,295.039 189.501,291.551 226.601,302.462 		"/>
	</g>
	<g>
		<polygon points="225.839,339.342 188.639,332.067 189.34,328.498 226.541,335.773 		"/>
	</g>
	<g>
		<rect x="188.901" y="367.269" transform="matrix(0.9953 0.0971 -0.0971 0.9953 36.812 -18.4147)" width="37.483" height="3.636"/>
	</g>
	<g>
		<rect x="188.989" y="402.435" width="37.411" height="3.639"/>
	</g>
	<g>
		<rect x="478.754" y="34.393" width="3.639" height="36.371"/>
	</g>
	<g>
		<rect x="512.93" y="34.252" transform="matrix(0.9923 0.124 -0.124 0.9923 10.4965 -63.4407)" width="3.637" height="36.654"/>
	</g>
	<g>
		<rect x="547.106" y="33.834" transform="matrix(0.9701 0.2425 -0.2425 0.9701 29.1417 -131.5638)" width="3.637" height="37.49"/>
	</g>
	<g>
		<rect x="581.28" y="33.157" transform="matrix(0.9363 0.3511 -0.3511 0.9363 55.588 -201.3923)" width="3.64" height="38.844"/>
	</g>
	<g>
		
			<rect x="615.454" y="32.247" transform="matrix(0.8944 0.4472 -0.4472 0.8944 88.6814 -270.5031)" width="3.642" height="40.663"/>
	</g>
	<g>
		<rect x="649.631" y="31.134" transform="matrix(0.848 0.53 -0.53 0.848 126.8883 -337.2763)" width="3.641" height="42.889"/>
	</g>
	<g>
		<rect x="683.81" y="29.847" transform="matrix(0.8 0.6 -0.6 0.8 168.6725 -400.8603)" width="3.634" height="45.463"/>
	</g>
	<g>
		
			<rect x="717.984" y="28.415" transform="matrix(0.7524 0.6587 -0.6587 0.7524 212.8523 -461.1153)" width="3.637" height="48.327"/>
	</g>
	<g>
		<polygon points="736.901,105.468 734.475,102.762 770.949,70.025 773.375,72.731 		"/>
	</g>
	<g>
		
			<rect x="752.053" y="99.544" transform="matrix(0.6227 0.7825 -0.7825 0.6227 380.6316 -543.5109)" width="3.638" height="46.741"/>
	</g>
	<g>
		
			<rect x="752.001" y="135.754" transform="matrix(0.5705 0.8213 -0.8213 0.5705 453.5982 -551.2148)" width="3.637" height="44.655"/>
	</g>
	<g>
		<rect x="751.949" y="171.862" transform="matrix(0.51 0.8602 -0.8602 0.51 535.5489 -553.6718)" width="3.636" height="42.775"/>
	</g>
	<g>
		<polygon points="736.074,239.141 734.47,235.878 771.36,217.691 772.964,220.954 		"/>
	</g>
	<g>
		<polygon points="735.834,272.55 734.5,269.166 771.495,254.619 772.829,258.002 		"/>
	</g>
	<g>
		<polygon points="735.573,305.951 734.551,302.462 771.651,291.551 772.673,295.039 		"/>
	</g>
	<g>
		<polygon points="735.307,339.342 734.606,335.773 771.811,328.498 772.513,332.067 		"/>
	</g>
	<g>
		
			<rect x="751.691" y="350.345" transform="matrix(0.0965 0.9953 -0.9953 0.0965 1048.1594 -416.5227)" width="3.636" height="37.483"/>
	</g>
	<g>
		<rect x="734.751" y="402.435" width="37.411" height="3.639"/>
	</g>
	<g>
		<rect x="478.754" y="737.745" width="3.639" height="36.371"/>
	</g>
	<g>
		
			<rect x="496.422" y="754.112" transform="matrix(0.124 0.9923 -0.9923 0.124 1201.0006 151.4012)" width="36.654" height="3.637"/>
	</g>
	<g>
		<rect x="530.179" y="754.112" transform="matrix(0.2425 0.9701 -0.9701 0.2425 1149.163 40.0657)" width="37.49" height="3.637"/>
	</g>
	<g>
		
			<rect x="563.678" y="754.111" transform="matrix(0.3511 0.9363 -0.9363 0.3511 1086.1783 -55.4562)" width="38.844" height="3.64"/>
	</g>
	<g>
		
			<rect x="596.944" y="754.11" transform="matrix(0.4472 0.8944 -0.8944 0.4472 1017.3712 -134.2286)" width="40.663" height="3.642"/>
	</g>
	<g>
		<rect x="630.006" y="754.11" transform="matrix(0.53 0.848 -0.848 0.53 947.2404 -197.1319)" width="42.889" height="3.641"/>
	</g>
	<g>
		<rect x="662.895" y="754.114" transform="matrix(0.6 0.8 -0.8 0.6 879.0285 -246.1226)" width="45.463" height="3.634"/>
	</g>
	<g>
		
			<rect x="695.639" y="754.112" transform="matrix(0.6585 0.7526 -0.7526 0.6585 814.7406 -283.5562)" width="48.327" height="3.637"/>
	</g>
	<g>
		
			<rect x="729.421" y="718.944" transform="matrix(0.7442 0.6679 -0.6679 0.7442 674.2543 -319.2158)" width="49.009" height="3.635"/>
	</g>
	<g>
		
			<rect x="730.502" y="683.776" transform="matrix(0.7826 0.6225 -0.6225 0.7826 590.7131 -320.2596)" width="46.741" height="3.638"/>
	</g>
	<g>
		
			<rect x="731.493" y="648.608" transform="matrix(0.8215 0.5702 -0.5702 0.8215 505.3766 -313.718)" width="44.653" height="3.637"/>
	</g>
	<g>
		
			<rect x="732.38" y="613.442" transform="matrix(0.8601 0.5102 -0.5102 0.8601 419.3713 -298.4627)" width="42.775" height="3.636"/>
	</g>
	<g>
		<polygon points="771.36,590.816 734.47,572.632 736.074,569.369 772.964,587.553 		"/>
	</g>
	<g>
		<polygon points="771.495,553.891 734.5,539.343 735.834,535.96 772.829,550.508 		"/>
	</g>
	<g>
		<polygon points="771.651,516.956 734.551,506.045 735.573,502.556 772.673,513.468 		"/>
	</g>
	<g>
		<polygon points="771.811,480.011 734.606,472.736 735.307,469.168 772.513,476.443 		"/>
	</g>
	<g>
		<rect x="734.768" y="437.604" transform="matrix(0.9953 0.097 -0.097 0.9953 46.1845 -71.0284)" width="37.482" height="3.636"/>
	</g>
	<g>
		<rect x="734.751" y="402.435" width="37.411" height="3.639"/>
	</g>
	<g>
		<rect x="478.754" y="737.745" width="3.639" height="36.371"/>
	</g>
	<g>
		<rect x="444.579" y="737.604" transform="matrix(0.9923 0.124 -0.124 0.9923 97.2088 -49.5314)" width="3.637" height="36.654"/>
	</g>
	<g>
		
			<rect x="410.406" y="737.185" transform="matrix(0.9701 0.2425 -0.2425 0.9701 195.6482 -77.4089)" width="3.637" height="37.491"/>
	</g>
	<g>
		
			<rect x="376.229" y="736.508" transform="matrix(0.9363 0.3511 -0.3511 0.9363 289.4958 -84.6111)" width="3.64" height="38.846"/>
	</g>
	<g>
		
			<rect x="342.055" y="735.599" transform="matrix(0.8944 0.4472 -0.4472 0.8944 374.3665 -73.9802)" width="3.642" height="40.663"/>
	</g>
	<g>
		<rect x="307.88" y="734.486" transform="matrix(0.848 0.53 -0.53 0.848 447.7175 -49.2381)" width="3.641" height="42.889"/>
	</g>
	<g>
		<rect x="273.708" y="733.2" transform="matrix(0.8 0.6 -0.6 0.8 508.6635 -14.1287)" width="3.634" height="45.463"/>
	</g>
	<g>
		
			<rect x="239.531" y="731.767" transform="matrix(0.7524 0.6587 -0.6587 0.7524 557.6881 28.1874)" width="3.637" height="48.327"/>
	</g>
	<g>
		
			<rect x="205.409" y="696.257" transform="matrix(0.6674 0.7447 -0.7447 0.6674 605.6405 85.3829)" width="3.635" height="49.009"/>
	</g>
	<g>
		<rect x="205.46" y="662.224" transform="matrix(0.6227 0.7825 -0.7825 0.6227 614.6747 96.4994)" width="3.638" height="46.741"/>
	</g>
	<g>
		<rect x="205.513" y="628.1" transform="matrix(0.5705 0.8213 -0.8213 0.5705 623.2435 109.078)" width="3.637" height="44.653"/>
	</g>
	<g>
		<rect x="205.564" y="593.875" transform="matrix(0.51 0.8602 -0.8602 0.51 630.8314 123.0789)" width="3.636" height="42.771"/>
	</g>
	<g>
		<polygon points="189.791,590.816 188.187,587.553 225.077,569.369 226.681,572.632 		"/>
	</g>
	<g>
		<polygon points="189.656,553.891 188.323,550.508 225.318,535.96 226.651,539.343 		"/>
	</g>
	<g>
		<polygon points="189.501,516.956 188.478,513.468 225.578,502.556 226.601,506.045 		"/>
	</g>
	<g>
		<polygon points="189.34,480.011 188.639,476.443 225.839,469.168 226.541,472.736 		"/>
	</g>
	<g>
		<rect x="205.824" y="420.68" transform="matrix(0.0965 0.9953 -0.9953 0.0965 624.9753 190.344)" width="3.636" height="37.482"/>
	</g>
	<g>
		<rect x="188.989" y="402.435" width="37.411" height="3.639"/>
	</g>
	<g>
		
			<rect x="204.125" y="49.529" transform="matrix(0.7071 0.7071 -0.7071 0.7071 102.9918 -133.2209)" width="16.366" height="16.366"/>
	</g>
	<g>
		
			<rect x="740.608" y="49.529" transform="matrix(0.7071 0.7071 -0.7071 0.7071 260.1243 -512.5722)" width="16.366" height="16.366"/>
	</g>
	<g>
		
			<rect x="204.122" y="742.615" transform="matrix(0.7071 0.7071 -0.7071 0.7071 593.0771 69.7811)" width="16.366" height="16.366"/>
	</g>
	<g>
		
			<rect x="740.608" y="742.614" transform="matrix(0.7071 0.7071 -0.7071 0.7071 750.2098 -309.5721)" width="16.366" height="16.366"/>
	</g>
	<g>
		<path stroke="#000000" stroke-width="0.2835" stroke-miterlimit="10" d="M186.089,846.508h5.789
			c0.767,5.471,2.26,9.506,4.471,12.102s5.313,3.892,9.313,3.892c0.351,0,0.717-0.015,1.103-0.053
			c0.386-0.033,0.757-0.085,1.108-0.158c2.737-0.421,5.243-1.752,7.523-3.997c2.281-2.245,3.418-5.473,3.418-9.681v-2.842
			c-0.281-2.737-1.524-4.842-3.734-6.313c-2.21-1.474-4.822-2.807-7.839-4c-0.632-0.211-1.263-0.456-1.895-0.737
			c-0.632-0.278-1.298-0.561-2-0.842c-3.859-1.611-7.403-3.789-10.626-6.523c-3.228-2.737-4.842-7.085-4.842-13.049
			c0-0.211,0.015-0.456,0.05-0.737c0.035-0.278,0.09-0.561,0.16-0.842c0-0.068,0-0.14,0-0.211c0-0.068,0.035-0.14,0.105-0.211
			c0-0.211,0.015-0.436,0.05-0.684c0.035-0.246,0.055-0.474,0.055-0.684c0.421-4.559,2.276-7.979,5.579-10.26
			c3.293-2.278,6.907-3.453,10.836-3.524c0.07,0,0.12,0,0.16,0c0.03,0,0.085,0,0.155,0c0.351,0,0.682,0,0.997,0
			c0.316,0,0.652,0.035,1.002,0.105c4.14,0.351,7.924,1.912,11.363,4.681c3.438,2.772,5.263,6.719,5.473,11.839l-6.526-0.105
			c0-3.085-1.158-5.734-3.468-7.944c-2.316-2.21-4.877-3.526-7.684-3.947c-0.281,0-0.581-0.015-0.897-0.053
			c-0.316-0.035-0.611-0.053-0.892-0.053c-2.456,0-4.716,0.88-6.786,2.631c-2.07,1.754-3.248,4.666-3.524,8.734
			c0,0.143-0.02,0.301-0.055,0.474c-0.035,0.175-0.05,0.333-0.05,0.474c0,0.211-0.02,0.404-0.055,0.579
			c-0.035,0.175-0.05,0.333-0.05,0.474c0,4.418,1.469,7.614,4.416,9.576c2.947,1.965,6.28,3.684,9.999,5.158
			c0.211,0.14,0.421,0.246,0.632,0.313c0.211,0.073,0.456,0.143,0.737,0.211c3.789,1.546,7.313,3.458,10.576,5.736
			c3.263,2.281,4.962,6.05,5.102,11.313v0.632c0,6.456-1.945,11.383-5.839,14.783c-3.894,3.406-8.155,5.278-12.786,5.631
			c-0.281,0-0.546,0-0.792,0c-0.246,0-0.471,0-0.682,0c-0.07,0-0.125,0-0.16,0s-0.085,0-0.155,0
			c-4.701-0.07-9.032-1.807-12.997-5.21c-3.965-3.401-5.944-8.611-5.944-15.625c0-0.07,0-0.14,0-0.211s0.035-0.175,0.105-0.316
			c0-0.07,0-0.14,0-0.211c0-0.07,0-0.14,0-0.211V846.508z"/>
		<path stroke="#000000" stroke-width="0.2835" stroke-miterlimit="10" d="M294.262,862.555c-3.719,3.754-7.754,5.842-12.099,6.263
			c-0.351,0-0.722,0.015-1.108,0.053c-0.386,0.035-0.752,0.053-1.103,0.053c-5.614-0.211-9.734-2.403-12.365-6.578
			c-2.631-4.173-4.436-8.786-5.418-13.836c-0.566-3.158-0.912-6.21-1.053-9.155c-0.14-2.947-0.211-5.403-0.211-7.368
			c0-0.348,0.015-0.717,0.05-1.105c0.035-0.383,0.055-0.789,0.055-1.208c0.14-1.824,0.261-3.824,0.366-6
			c0.105-2.173,0.371-4.383,0.792-6.629c0.772-5.052,2.451-9.664,5.047-13.839c2.596-4.173,7.052-6.26,13.367-6.26
			c6.17,0,10.891,1.596,14.154,4.787c3.258,3.193,5.067,8.403,5.418,15.628l-6.526-0.105c-0.351-4.631-1.524-8.295-3.524-10.997
			c-2-2.702-5.178-4.052-9.523-4.052c-5.473,0-9.032,3.087-10.681,9.26c-1.649,6.175-2.476,13.997-2.476,23.467
			c0,1.544,0.035,3.316,0.105,5.315c0.07,1.997,0.246,4.015,0.526,6.05c0.632,4.28,1.965,8.172,4,11.681
			c2.035,3.508,5.368,5.26,9.999,5.26c3.789,0,6.591-1.579,8.415-4.734c1.824-3.158,3.017-6.631,3.579-10.418
			c0.07-0.912,0.14-1.807,0.211-2.684c0.07-0.877,0.105-1.737,0.105-2.579l6.526-0.105
			C300.192,852.19,297.981,858.803,294.262,862.555z"/>
		<path stroke="#000000" stroke-width="0.2835" stroke-miterlimit="10" d="M355.616,797.787c6.245,0.07,10.942,1.709,14.099,4.917
			c3.158,3.208,4.982,6.764,5.473,10.668c0,0.348,0.015,0.699,0.055,1.048c0.03,0.348,0.05,0.697,0.05,1.045c0,0.07,0,0.123,0,0.158
			s0,0.088,0,0.158c-0.07,3.656-1.178,7.03-3.313,10.122c-2.14,3.095-5.142,4.854-8.997,5.275c0.211,0.07,0.401,0.14,0.576,0.211
			c0.175,0.07,0.331,0.143,0.476,0.211c3.504,1.406,5.889,3.446,7.152,6.117c1.263,2.672,1.895,8.541,1.895,17.61
			c0,0.561,0,1.16,0,1.792c0,0.634,0.035,1.268,0.105,1.897c0.07,1.479,0.301,2.849,0.687,4.113c0.381,1.268,1.068,2.04,2.05,2.321
			v1.263h-6.421c-0.702-0.91-1.158-1.877-1.368-2.895c-0.211-1.015-0.351-2.158-0.421-3.418c-0.07-0.632-0.12-1.316-0.155-2.052
			c-0.035-0.737-0.125-1.526-0.266-2.368c-0.07-0.421-0.12-0.895-0.155-1.421s-0.055-1.14-0.055-1.842
			c0-0.98-0.035-2.068-0.105-3.26c-0.07-1.193-0.211-2.421-0.421-3.684c-0.351-2.877-1.298-5.523-2.837-7.944
			c-1.544-2.421-4.245-3.631-8.105-3.631h-10.21v32.517h-6.416v-68.925H355.616z M345.407,828.304h10.21
			c0.07,0.07,0.14,0.123,0.211,0.158s0.175,0.053,0.316,0.053c0.07,0,0.155,0.018,0.261,0.053s0.195,0.053,0.266,0.053
			c3.298,0,5.854-1.326,7.684-3.977c1.819-2.654,2.732-5.571,2.732-8.756c0-0.208,0-0.401,0-0.574c0-0.175,0-0.366,0-0.574
			c-0.211-2.925-1.313-5.621-3.313-8.09c-2-2.471-4.962-3.707-8.892-3.707l-9.473-0.105V828.304z"/>
		<path stroke="#000000" stroke-width="0.2835" stroke-miterlimit="10" d="M419.066,797.787v68.925h-6.521v-68.925H419.066z"/>
		<path stroke="#000000" stroke-width="0.2835" stroke-miterlimit="10" d="M491.988,797.787v6.523h-15.889v62.402h-6.631v-62.402
			h-15.889v-6.523H491.988z"/>
		<path stroke="#000000" stroke-width="0.2835" stroke-miterlimit="10" d="M559.337,797.787v6.523h-15.889v62.402h-6.631v-62.402
			h-15.889v-6.523H559.337z"/>
		<path stroke="#000000" stroke-width="0.2835" stroke-miterlimit="10" d="M600.692,797.787v49.458
			c0,5.471,0.897,9.383,2.687,11.734c1.789,2.351,5.032,3.524,9.734,3.524c4,0,7.172-0.962,9.523-2.892s3.524-5.772,3.524-11.523
			v-50.3h6.526v53.036c0,6.594-1.915,11.137-5.734,13.626c-3.824,2.491-8.44,3.737-13.839,3.737h-1.789
			c-5.333,0-9.523-1.684-12.576-5.052c-3.052-3.366-4.576-8.628-4.576-15.783v-49.563H600.692z"/>
		<path stroke="#000000" stroke-width="0.2835" stroke-miterlimit="10" d="M688.14,797.787c6.245,0.07,10.942,1.709,14.099,4.917
			c3.158,3.208,4.982,6.764,5.473,10.668c0,0.348,0.015,0.699,0.055,1.048c0.03,0.348,0.05,0.697,0.05,1.045c0,0.07,0,0.123,0,0.158
			s0,0.088,0,0.158c-0.07,3.656-1.178,7.03-3.313,10.122c-2.14,3.095-5.143,4.854-8.997,5.275c0.211,0.07,0.401,0.14,0.576,0.211
			s0.331,0.143,0.476,0.211c3.503,1.406,5.889,3.446,7.152,6.117s1.895,8.541,1.895,17.61c0,0.561,0,1.16,0,1.792
			c0,0.634,0.035,1.268,0.105,1.897c0.07,1.479,0.301,2.849,0.687,4.113c0.381,1.268,1.068,2.04,2.05,2.321v1.263h-6.421
			c-0.702-0.91-1.158-1.877-1.368-2.895c-0.211-1.015-0.351-2.158-0.421-3.418c-0.07-0.632-0.12-1.316-0.155-2.052
			c-0.035-0.737-0.125-1.526-0.266-2.368c-0.07-0.421-0.12-0.895-0.155-1.421c-0.035-0.526-0.055-1.14-0.055-1.842
			c0-0.98-0.035-2.068-0.105-3.26c-0.07-1.193-0.211-2.421-0.421-3.684c-0.351-2.877-1.298-5.523-2.837-7.944
			c-1.544-2.421-4.245-3.631-8.105-3.631h-10.21v32.517h-6.416v-68.925H688.14z M677.93,828.304h10.21
			c0.07,0.07,0.14,0.123,0.211,0.158c0.07,0.035,0.175,0.053,0.316,0.053c0.07,0,0.155,0.018,0.261,0.053
			c0.105,0.035,0.195,0.053,0.266,0.053c3.298,0,5.854-1.326,7.684-3.977c1.819-2.654,2.732-5.571,2.732-8.756
			c0-0.208,0-0.401,0-0.574c0-0.175,0-0.366,0-0.574c-0.211-2.925-1.313-5.621-3.313-8.09c-2-2.471-4.962-3.707-8.892-3.707
			l-9.473-0.105V828.304z"/>
		<path stroke="#000000" stroke-width="0.2835" stroke-miterlimit="10" d="M775.166,797.787v6.523h-24.73v22.52h21.888v6.523
			h-21.888v26.94h24.73v6.418h-31.883v-68.925H775.166z"/>
	</g>
	<g>
		<g>
			<path fill="#4D4D4D" d="M210.513,897.077c-0.14,0.119,2.502-2.056,3.244-4.606c1.012-2.938-1.975-7.053-6.653-9.422
				c-4.641-2.456-12.493-2.198-17.598,3.456c-2.48,2.745-3.991,6.736-3.699,10.828c0.266,4.234,2.395,8.284,6.068,10.963
				c0.861,0.722,1.972,1.084,2.948,1.656c1.095,0.297,2.176,0.734,3.32,0.87c2.246,0.303,4.747,0.108,7.28,0.034
				c5.048-0.174,10.267-0.355,15.632-0.539c5.362-0.213,10.883-0.315,16.504-0.632c5.606-0.41,11.333-0.827,17.158-1.253
				c11.643-0.678,23.647-2.163,35.861-3.268c12.215-1.284,24.624-2.59,37.033-3.894c12.435-1.207,24.877-2.492,37.152-3.411
				c12.267-1.014,24.365-1.753,36.081-2.343c11.717-0.585,23.052-1.036,33.827-1.068c5.391,0.04,10.63,0.034,15.724,0.556
				c5.138,0.411,10.008,1.977,14.029,4.624c3.993,2.653,6.731,6.972,6.823,11.378c0.217,4.331-1.489,8.452-4.113,11.217
				c-5.329,5.79-13.373,6.005-18.113,3.46c-5.039-2.546-6.803-6.665-8.914-9.106c-1.143-1.291-1.844-2.494-2.56-3.342
				c-0.657-0.855-1.19-1.361-1.155-1.357c0-2.182,1.769-3.951,3.95-3.951c2.182,0,3.951,1.769,3.951,3.951
				c0.172-0.021-1.943,1.129-2.274,4.124c-0.603,3.051,2.155,7.215,7.031,9.618c4.728,2.489,12.726,2.185,17.891-3.57
				c2.507-2.816,4.031-6.797,3.714-11.008c-0.226-4.208-2.869-8.196-6.773-10.581c-7.998-5.003-18.58-3.918-29.155-3.63
				c-10.689,0.52-21.955,1.497-33.594,2.621c-23.268,2.466-48.088,5.097-72.908,7.728c-12.454,1.138-24.86,2.594-37.162,3.402
				c-12.296,0.878-24.386,1.75-36.157,1.915c-5.871,0.164-11.643,0.326-17.294,0.485c-5.637-0.028-11.153-0.055-16.523-0.083
				c-5.368-0.043-10.59-0.085-15.641-0.127c-2.515-0.04-4.99,0.074-7.579-0.375c-1.258-0.207-2.442-0.729-3.619-1.119
				c-1.059-0.663-2.237-1.123-3.146-1.943c-3.854-2.937-6.127-7.627-6.26-11.905c-0.222-4.452,1.484-8.562,4.138-11.398
				c5.388-5.892,13.579-6.151,18.406-3.575c2.546,1.178,4.376,2.982,5.685,4.686c1.204,1.787,2.459,3.138,3.608,4.617
				c1.359,1.545,2.287,2.555,3.178,3.217c0.853,0.674,1.548,0.996,1.507,1c0.304,2.997-1.88,5.674-4.878,5.977
				C213.493,902.259,210.816,900.075,210.513,897.077z"/>
			<path fill="#4D4D4D" d="M455.633,927.963c-2.516,0-4.987-0.584-6.957-1.639c-1.278-0.647-2.436-1.431-3.519-2.391
				c-0.662-0.569-1.258-1.178-1.779-1.814c-0.867-1.01-1.594-2.042-2.235-2.952c-0.546-0.777-1.063-1.511-1.584-2.115
				c-0.692-0.779-1.223-1.524-1.689-2.18c-0.311-0.436-0.591-0.83-0.877-1.168c-0.461-0.599-0.842-1.007-1.022-1.2l-0.326-0.348
				l0.04-0.276h-0.02c0-2.581,2.1-4.679,4.681-4.679c2.526,0,4.591,2.012,4.676,4.521l0.14,0.401l-0.501,0.416
				c-1.113,0.9-1.759,2.093-1.92,3.544c-0.296,1.529,0.346,3.366,1.754,5.102c0.531,0.616,1.063,1.158,1.624,1.654
				c0.957,0.822,2.055,1.539,3.253,2.13c1.734,0.91,3.894,1.406,6.11,1.406c2.466,0,7.162-0.624,10.922-4.812
				c2.526-2.839,3.814-6.656,3.529-10.465c-0.206-3.887-2.672-7.719-6.431-10.014c-5.383-3.371-11.994-3.824-17.753-3.824
				c-2.391,0-4.882,0.09-7.298,0.178c-1.233,0.045-2.466,0.09-3.704,0.123c-11.438,0.556-23.372,1.636-33.542,2.619l-72.902,7.726
				c-4.195,0.383-8.37,0.799-12.54,1.218c-8.1,0.809-16.47,1.649-24.645,2.185l-0.396,0.028
				c-12.415,0.887-24.139,1.727-35.802,1.887l-17.287,0.486l-32.188-0.211c-2.516-0.035-5.022,0.08-7.699-0.383
				c-0.972-0.16-1.885-0.491-2.772-0.812c-0.316-0.115-0.637-0.231-0.952-0.333c-0.506-0.296-0.872-0.494-1.238-0.689
				c-0.742-0.398-1.504-0.809-2.165-1.403c-3.844-2.927-6.35-7.701-6.501-12.425c-0.221-4.393,1.363-8.741,4.336-11.916
				c3.158-3.453,7.518-5.361,12.27-5.361c2.536,0,5.027,0.584,7.007,1.641c2.215,1.022,4.22,2.672,5.924,4.884
				c0.802,1.188,1.609,2.168,2.391,3.113c0.411,0.501,0.817,0.992,1.213,1.501c1.368,1.559,2.225,2.479,3.037,3.08
				c0.596,0.471,1.103,0.757,1.318,0.88l0.471,0.268l-0.005,0.363h0.01c0.17,1.641-0.316,3.25-1.358,4.531
				c-1.043,1.281-2.526,2.075-4.165,2.243c-3.438,0.326-6.36-2.09-6.766-5.406l-0.15-0.421l0.391-0.331
				c0.06-0.048,2.371-2.037,3.022-4.255c0.872-2.546-1.955-6.375-6.29-8.568c-1.704-0.905-3.849-1.398-6.04-1.398
				c-2.406,0-6.997,0.609-10.686,4.694c-2.466,2.724-3.779,6.571-3.514,10.287c0.261,4.143,2.361,7.942,5.774,10.425
				c0.516,0.431,1.103,0.717,1.729,1.02c0.361,0.173,0.722,0.351,1.073,0.549c0.316,0.088,0.632,0.188,0.947,0.286
				c0.747,0.233,1.449,0.454,2.17,0.539c1.504,0.198,3.539,0.16,5.639,0.085l17.167-0.596c1.86-0.073,3.739-0.133,5.639-0.193
				c3.529-0.113,7.182-0.231,10.846-0.439l17.147-1.251c7.679-0.449,15.342-1.228,23.462-2.052c4.1-0.419,8.23-0.84,12.385-1.215
				l43.917-4.566c9.959-0.977,20.264-1.99,30.279-2.737c10.947-0.907,22.76-1.674,36.103-2.348
				c10.205-0.509,22.209-1.033,33.862-1.068l1.248,0.008c5.047,0.035,9.814,0.068,14.55,0.551c5.318,0.426,10.29,2.068,14.355,4.744
				c4.315,2.864,7.057,7.451,7.147,11.969c0.216,4.26-1.393,8.656-4.31,11.734C464.559,926.098,460.284,927.963,455.633,927.963z
				 M437.128,911.613c0.266,0.286,0.611,0.674,0.997,1.178c0.286,0.338,0.591,0.764,0.927,1.236
				c0.446,0.627,0.957,1.338,1.604,2.065c0.185,0.221,0.371,0.449,0.556,0.689c0.005-0.316,0.035-0.621,0.095-0.92
				c0.125-1.163,0.627-2.887,2.245-4.293c-0.155-1.631-1.534-2.915-3.208-2.915C438.656,908.653,437.263,909.959,437.128,911.613z
				 M194.623,910.651c0.005,0.003,0.01,0.008,0.015,0.01c0.17,0.035,0.501,0.155,0.832,0.273c0.822,0.298,1.674,0.606,2.521,0.747
				c2.521,0.436,4.942,0.321,7.468,0.363l32.158,0.211l17.272-0.486c11.628-0.16,23.337-0.997,35.727-1.885l0.401-0.03
				c8.155-0.534,16.515-1.371,24.6-2.18c4.175-0.416,8.355-0.835,12.546-1.218l72.897-7.726c10.19-0.985,22.149-2.065,33.632-2.624
				c1.248-0.035,2.481-0.08,3.709-0.123c2.426-0.088,4.932-0.18,7.348-0.18c3.082,0,6.406,0.13,9.684,0.744
				c-1.644-0.404-3.348-0.679-5.097-0.82c-4.681-0.479-9.413-0.511-14.425-0.544l-1.243-0.01
				c-11.613,0.035-23.597,0.559-33.787,1.068c-13.327,0.672-25.121,1.439-36.058,2.343c-10.004,0.749-20.299,1.759-30.254,2.734
				l-11.964,1.208l-31.953,3.361c-4.16,0.376-8.285,0.797-12.38,1.213c-8.135,0.827-15.813,1.609-23.512,2.058l-17.147,1.253
				c-3.694,0.208-7.358,0.326-10.896,0.439c-1.895,0.06-3.774,0.12-5.629,0.193l-17.167,0.596c-2.185,0.085-4.3,0.115-5.874-0.095
				c-0.847-0.1-1.649-0.351-2.421-0.594c-0.331-0.103-0.662-0.206-0.992-0.296L194.623,910.651z M211.284,897.361
				c0.426,2.398,2.656,4.13,5.132,3.869c1.258-0.128,2.391-0.734,3.188-1.714c0.722-0.885,1.093-1.977,1.063-3.11
				c-0.321-0.19-0.762-0.469-1.258-0.857c-0.897-0.669-1.809-1.641-3.273-3.308c-0.416-0.531-0.812-1.012-1.213-1.504
				c-0.105-0.128-0.216-0.256-0.321-0.386c0.14,0.819,0.1,1.616-0.155,2.356C213.83,894.825,212.01,896.679,211.284,897.361z"/>
		</g>
		<g>
			<path fill="#4D4D4D" d="M739.781,895.978c-0.041-0.004,0.654-0.326,1.507-1c0.892-0.662,1.819-1.672,3.178-3.217
				c1.148-1.48,2.403-2.831,3.608-4.617c1.309-1.704,3.14-3.509,5.685-4.686c4.827-2.576,13.018-2.317,18.406,3.575
				c2.655,2.836,4.36,6.946,4.139,11.398c-0.133,4.278-2.406,8.968-6.26,11.905c-0.91,0.821-2.087,1.281-3.147,1.943
				c-1.177,0.39-2.361,0.912-3.619,1.119c-2.589,0.449-5.064,0.335-7.579,0.375c-5.051,0.041-10.273,0.084-15.641,0.127
				c-5.369,0.028-10.885,0.055-16.523,0.083c-5.65-0.159-11.423-0.321-17.294-0.485c-11.771-0.164-23.86-1.036-36.157-1.915
				c-12.302-0.808-24.708-2.264-37.162-3.402c-24.82-2.63-49.639-5.262-72.907-7.728c-11.64-1.124-22.906-2.101-33.594-2.621
				c-10.576-0.288-21.158-1.373-29.155,3.63c-3.904,2.385-6.548,6.373-6.773,10.581c-0.316,4.212,1.208,8.192,3.714,11.008
				c5.165,5.755,13.163,6.058,17.891,3.57c4.877-2.403,7.635-6.567,7.032-9.618c-0.331-2.995-2.446-4.145-2.274-4.124
				c0-2.182,1.769-3.951,3.951-3.951c2.182,0,3.951,1.769,3.951,3.951c0.034-0.004-0.499,0.502-1.156,1.357
				c-0.716,0.848-1.417,2.051-2.56,3.342c-2.11,2.441-3.874,6.56-8.914,9.106c-4.74,2.545-12.785,2.331-18.113-3.46
				c-2.623-2.766-4.33-6.887-4.112-11.217c0.092-4.406,2.831-8.725,6.823-11.378c4.021-2.646,8.891-4.213,14.029-4.624
				c5.095-0.523,10.334-0.516,15.724-0.556c10.774,0.031,22.11,0.482,33.827,1.068c11.717,0.59,23.814,1.33,36.081,2.343
				c12.275,0.919,24.716,2.204,37.152,3.411c12.408,1.304,24.817,2.61,37.033,3.894c12.214,1.105,24.218,2.59,35.861,3.268
				c5.825,0.426,11.552,0.843,17.159,1.253c5.621,0.317,11.141,0.419,16.503,0.632c5.365,0.184,10.584,0.365,15.632,0.539
				c2.532,0.074,5.033,0.269,7.28-0.034c1.144-0.135,2.224-0.573,3.32-0.87c0.977-0.573,2.086-0.935,2.948-1.656
				c3.674-2.679,5.802-6.729,6.068-10.963c0.292-4.091-1.219-8.082-3.698-10.828c-5.106-5.654-12.957-5.912-17.598-3.456
				c-4.678,2.368-7.665,6.483-6.653,9.422c0.743,2.55,3.385,4.725,3.244,4.606c-0.303,2.999-2.98,5.183-5.978,4.878
				C741.662,901.651,739.478,898.975,739.781,895.978z"/>
			<path fill="#4D4D4D" d="M505.519,927.963c-4.646,0-8.927-1.865-12.039-5.245c-2.907-3.062-4.521-7.458-4.305-11.746
				c0.095-4.498,2.837-9.085,7.152-11.949c4.065-2.677,9.037-4.318,14.37-4.744c4.721-0.484,9.488-0.516,14.535-0.551l1.243-0.008
				c11.658,0.035,23.663,0.559,33.867,1.068c13.352,0.674,25.161,1.441,36.108,2.348c10.014,0.747,20.324,1.759,30.294,2.737
				l12.816,1.298l31.086,3.268c4.15,0.376,8.285,0.797,12.39,1.215c8.11,0.825,15.773,1.604,23.437,2.05l17.172,1.253
				c3.649,0.208,7.303,0.326,10.836,0.439c1.9,0.06,3.779,0.12,5.644,0.193l17.162,0.596c2.095,0.075,4.14,0.113,5.624-0.085
				c0.737-0.085,1.444-0.306,2.19-0.539c0.311-0.1,0.627-0.198,0.942-0.286c0.351-0.198,0.712-0.376,1.073-0.549
				c0.627-0.303,1.213-0.589,1.694-0.99c3.443-2.511,5.543-6.308,5.809-10.45c0.266-3.717-1.048-7.563-3.514-10.295
				c-3.689-4.082-8.28-4.691-10.686-4.691c-2.19,0-4.336,0.494-6.03,1.393c-4.351,2.2-7.172,6.03-6.31,8.541
				c0.637,2.163,2.807,4.097,3.012,4.278l0.451,0.371l-0.201,0.419c-0.411,3.303-3.328,5.699-6.756,5.378
				c-1.639-0.168-3.123-0.962-4.165-2.243c-1.018-1.245-1.504-2.804-1.373-4.401l-0.1-0.421l0.602-0.346
				c0.211-0.123,0.717-0.409,1.288-0.862c0.887-0.657,1.839-1.712,3.088-3.128c0.366-0.474,0.772-0.965,1.183-1.466
				c0.782-0.945,1.589-1.925,2.366-3.075c1.719-2.245,3.724-3.894,5.985-4.939c1.945-1.04,4.431-1.624,6.967-1.624
				c4.752,0,9.117,1.907,12.28,5.366c2.967,3.17,4.551,7.518,4.331,11.924c-0.15,4.711-2.656,9.486-6.546,12.45
				c-0.617,0.556-1.378,0.967-2.12,1.366c-0.366,0.195-0.732,0.393-1.083,0.614c-0.471,0.178-0.792,0.293-1.108,0.409
				c-0.887,0.321-1.799,0.652-2.777,0.812c-2.667,0.461-5.188,0.348-7.694,0.383l-32.168,0.211l-17.317-0.486
				c-11.653-0.16-23.377-1-35.792-1.887l-0.396-0.028c-8.175-0.536-16.545-1.376-24.645-2.185c-4.17-0.419-8.345-0.835-12.53-1.218
				l-72.917-7.726c-10.165-0.982-22.104-2.063-33.557-2.619c-1.223-0.033-2.456-0.078-3.689-0.123
				c-2.416-0.088-4.907-0.178-7.298-0.178c-5.754,0-12.365,0.454-17.743,3.819c-3.764,2.301-6.23,6.132-6.436,10.004
				c-0.286,3.827,1.002,7.641,3.529,10.483c3.759,4.185,8.456,4.809,10.922,4.809c2.215,0,4.376-0.496,6.09-1.398
				c1.223-0.601,2.316-1.318,3.278-2.138c0.556-0.496,1.088-1.038,1.619-1.654c1.408-1.737,2.05-3.574,1.764-5.042
				c-0.17-1.511-0.817-2.704-1.93-3.604l-0.401-0.323l0.04-0.336c0-2.581,2.095-4.679,4.676-4.679c2.551,0,4.631,2.052,4.676,4.596
				c0.045,0.331-0.18,0.574-0.326,0.729c-0.185,0.201-0.551,0.601-0.977,1.153c-0.306,0.363-0.586,0.757-0.897,1.193
				c-0.466,0.657-0.997,1.401-1.694,2.188c-0.516,0.596-1.033,1.331-1.579,2.108c-0.642,0.91-1.368,1.942-2.235,2.955
				c-0.521,0.634-1.118,1.243-1.779,1.812c-1.083,0.957-2.24,1.742-3.539,2.398C510.506,927.379,508.035,927.963,505.519,927.963z
				 M517.598,911.57c1.629,1.436,2.125,3.14,2.255,4.351c0.055,0.276,0.085,0.559,0.09,0.852c0.18-0.236,0.361-0.459,0.546-0.674
				c0.652-0.734,1.163-1.446,1.609-2.073c0.336-0.471,0.642-0.897,0.947-1.261c0.391-0.514,0.757-0.915,0.972-1.15
				c-0.135-1.656-1.524-2.962-3.213-2.962C519.132,908.653,517.754,909.937,517.598,911.57z M515.398,895.802
				c2.416,0,4.922,0.093,7.348,0.18c1.228,0.043,2.461,0.088,3.694,0.123c11.503,0.556,23.462,1.639,33.647,2.624l72.912,7.726
				c4.18,0.383,8.36,0.802,12.535,1.218c8.085,0.809,16.445,1.646,24.6,2.18l0.401,0.03c12.39,0.887,24.099,1.724,35.717,1.885
				l17.302,0.486l32.138-0.211c2.506-0.055,4.952,0.068,7.463-0.363c0.852-0.14,1.704-0.449,2.526-0.747
				c0.201-0.07,0.396-0.143,0.596-0.213c-0.251,0.073-0.496,0.15-0.747,0.228c-0.777,0.243-1.579,0.494-2.441,0.594
				c-1.559,0.211-3.674,0.18-5.859,0.095l-17.162-0.596c-1.865-0.073-3.739-0.133-5.634-0.193
				c-3.544-0.113-7.208-0.231-10.886-0.439l-17.172-1.256c-7.684-0.446-15.362-1.225-23.487-2.052
				c-4.1-0.419-8.23-0.84-12.385-1.215l-43.902-4.566c-9.964-0.977-20.264-1.987-30.269-2.737
				c-10.932-0.902-22.73-1.669-36.063-2.343c-10.19-0.509-22.174-1.032-33.792-1.068l-1.238,0.01
				c-5.012,0.033-9.744,0.065-14.41,0.544c-1.749,0.14-3.448,0.414-5.087,0.814C509.012,895.93,512.325,895.802,515.398,895.802z
				 M740.485,896.406c-0.03,1.13,0.341,2.225,1.063,3.11c0.797,0.98,1.93,1.586,3.188,1.714c2.471,0.291,4.706-1.469,5.127-3.869
				c-0.727-0.682-2.541-2.546-3.168-4.684c-0.251-0.724-0.296-1.506-0.155-2.313c-0.105,0.125-0.206,0.251-0.311,0.376
				c-0.401,0.489-0.797,0.97-1.183,1.466c-1.338,1.519-2.341,2.626-3.328,3.356C741.227,895.953,740.776,896.233,740.485,896.406z"
				/>
		</g>
	</g>
	<g>
		<path d="M737.608,739.565h-514.07V68.945h514.07V739.565z M227.177,735.926h506.792V72.584H227.177V735.926z"/>
	</g>
	<g>
		<path d="M773.981,775.936H187.17V32.574h586.812V775.936z M190.809,772.297h579.534V36.213H190.809V772.297z"/>
	</g>
	<path d="M430.436,433.016c-72.656-35.336-107.929-82.162-107.992-140.113c-0.048-44.723,16.815-80.774,50.59-108.177
		s71.59-41.126,113.443-41.171c30.049-0.033,64.396,5.296,103.042,15.986c11.809,3.557,21.469,5.343,28.981,5.334
		c8.235-0.009,21.235-0.852,21.235-21.367h30.154l-31.897,182.763c-10.063-50.078-29.25-87.695-57.538-113.062
		c-28.28-25.375-59.952-38.033-95.017-37.995c-24.683,0.027-44.797,7.292-60.342,21.797c-15.545,14.505-23.307,31.952-23.285,52.342
		c0.027,24.683,8.724,45.414,26.092,62.216c17.375,16.794,50.922,38.224,102.812,63.924
		c72.656,35.336,107.929,82.162,107.992,140.113c0.048,44.723-16.815,80.774-50.59,108.177
		c-33.775,27.402-71.59,41.126-113.443,41.172c-30.049,0.033-64.396-5.296-103.042-15.986c-11.809-3.557-21.469-5.343-28.981-5.334
		c-8.235,0.009-21.235,0.852-21.235,21.366h-30.154l31.897-182.763c10.063,50.078,29.25,87.695,57.538,113.062
		c28.28,25.375,59.952,38.033,95.017,37.995c24.683-0.027,44.797-7.292,60.342-21.797c15.545-14.505,23.307-31.952,23.285-52.342
		c-0.027-24.683-8.724-45.414-26.092-62.216C515.872,480.146,482.326,458.716,430.436,433.016z"/>
	<g>
		<path fill="#4D4D4D" d="M428.757,540.144c11.036-5.216,20.77-5.916,27.056-5.38c3.287,0.246,5.19,0.741,7.097,1.155
			c1.738,0.458,2.635,0.694,2.635,0.694c1.454,0.386,3.024,0.374,4.564-0.116c4.302-1.37,6.679-5.967,5.308-10.269
			c-1.37-4.302-5.967-6.679-10.269-5.309c0,0-0.883,0.281-2.596,0.826c-1.54,0.476-4.764,1.262-8.098,2.367
			c-6.902,2.164-16.719,5.637-27.798,12.105c-11.099,6.288-23.347,16.684-32.082,32.177c-4.975,8.594-8.557,18.976-10.026,30.228
			c0.987,0.836,1.977,1.657,2.972,2.464c1.036-11.619,4.562-22.385,9.719-31.171C405.786,555.063,418.001,545.542,428.757,540.144z"
			/>
		<path fill="#4D4D4D" d="M397.887,655.53c0.356,0.526,0.642,1.08,1.011,1.6c1.908,2.679,4.006,5.263,6.278,7.73l5.7-1.163
			c-2.174-2.119-4.165-4.376-6.056-6.693C402.518,656.525,400.223,656.053,397.887,655.53z"/>
	</g>
	<path fill="#4D4D4D" d="M465.166,687.146c0,0-2.414,0.061-6.638,0.168c-2.106,0.11-4.676,0.09-7.666-0.094
		c-2.998-0.024-6.342-0.431-10.006-0.954c-3.619-0.62-7.58-1.455-11.588-2.59c-3.99-1.16-8.199-2.383-12.552-3.649
		c-4.341-1.187-8.782-2.549-13.372-3.646c-4.594-1.143-9.167-2.377-13.909-3.393c-2.375-0.581-4.704-1.046-6.944-1.362
		c-2.262-0.381-4.504-0.774-6.776-0.934c-2.26-0.247-4.492-0.459-6.655-0.427l-3.18-0.041c-1.252,0.035-2.018,0.093-3.082,0.207
		c-4.011,0.42-7.791,1.405-10.844,2.858c-3.066,1.451-5.295,3.368-6.498,5.325c-2.419,3.843-1.62,8.418-0.663,11.68
		c0.496,1.629,1.023,2.932,1.42,3.815c0.395,0.885,0.606,1.357,0.606,1.357l0.114,0.254c1.556,3.481-0.005,7.565-3.487,9.121
		c-3.482,1.555-7.565-0.006-9.12-3.487c-0.07-0.155-0.138-0.327-0.195-0.485c0,0-0.232-0.649-0.669-1.866
		c-0.43-1.218-1.023-3.046-1.561-5.508c-0.509-2.467-1.006-5.602-0.731-9.443c0.234-3.788,1.57-8.451,4.578-12.403
		c2.992-3.973,7.356-6.823,11.925-8.553c4.604-1.747,9.5-2.56,14.505-2.705c1.191-0.044,2.707-0.021,3.75,0.035
		c1.326,0.074,2.484,0.244,3.742,0.366c2.494,0.198,4.925,0.648,7.358,1.134c2.448,0.398,4.879,1.044,7.312,1.684
		c2.48,0.594,4.83,1.292,7.088,2.063c4.614,1.512,9.227,3.024,13.769,4.512c4.558,1.45,8.948,3.158,13.232,4.684
		c4.227,1.588,8.314,3.123,12.188,4.579c3.844,1.511,7.488,2.655,10.918,3.604c3.445,0.841,6.634,1.56,9.518,1.865
		c2.856,0.465,5.399,0.741,7.518,0.838c4.213,0.31,6.62,0.486,6.62,0.486c0.25,0.019,0.437,0.236,0.419,0.486
		C465.592,686.959,465.395,687.14,465.166,687.146z"/>
	<path fill="#4D4D4D" d="M256.401,196.551c0,0,0.279,0.13,0.803,0.375c0.615,0.288,1.4,0.723,2.323,1.241
		c1.89,1.053,4.44,2.699,7.284,4.927c1.43,1.109,2.902,2.396,4.43,3.787c1.563,1.351,2.993,3.016,4.558,4.626
		c1.393,1.787,2.987,3.476,4.251,5.496c1.346,1.947,2.669,3.938,3.802,6.058c1.226,2.05,2.216,4.233,3.163,6.375
		c1.06,2.08,1.645,4.346,2.359,6.432c0.756,2.073,1.116,4.204,1.541,6.165c0.467,1.953,0.655,3.847,0.808,5.585
		c0.141,1.738,0.397,3.29,0.387,4.699c-0.02,1.4-0.037,2.619-0.051,3.624c-0.06,1.985-0.093,3.119-0.093,3.119
		c-0.011,0.358-0.31,0.64-0.669,0.63c-0.286-0.009-0.523-0.202-0.601-0.46l-0.02-0.068c0,0-0.323-1.069-0.89-2.941
		c-0.268-0.924-0.592-2.045-0.965-3.331c-0.351-1.279-1.009-2.661-1.575-4.179c-0.578-1.517-1.215-3.139-2.133-4.757
		c-0.9-1.619-1.573-3.408-2.715-5.059c-1.073-1.675-2.044-3.446-3.306-5.087c-1.184-1.68-2.383-3.367-3.789-4.908
		c-1.275-1.625-2.717-3.114-4.148-4.55c-1.373-1.48-2.934-2.752-4.292-4.094c-2.895-2.522-5.581-4.881-8.087-6.635
		c-2.428-1.855-4.564-3.214-6.003-4.168c-0.687-0.432-1.226-0.773-1.594-1.005c-0.398-0.241-0.61-0.37-0.61-0.37l-0.252-0.153
		c-3.051-1.851-4.024-5.824-2.173-8.875C249.865,196.213,253.456,195.188,256.401,196.551z"/>
	<path fill="#4D4D4D" d="M284.341,341.121c0,0,1.355,2.604,3.135,6.625c0.531,0.779,1.107,1.623,1.715,2.516
		c0.639,0.883,1.108,1.911,1.854,2.908c0.817,0.981,1.678,1.985,2.497,3.069c0.793,1.106,1.697,2.159,2.722,3.118
		c0.969,1.024,1.939,2.049,2.893,3.057c1.052,0.926,2.088,1.839,3.089,2.722c1.994,1.802,4.057,3.278,5.741,4.684
		c3.568,2.596,5.947,4.328,5.947,4.328c0.175,0.128,0.214,0.373,0.086,0.548c-0.102,0.14-0.292,0.189-0.449,0.139
		c0,0-2.809-0.902-6.961-2.616c-2.022-0.952-4.517-1.885-6.927-3.381c-1.234-0.715-2.509-1.454-3.805-2.204
		c-1.236-0.871-2.492-1.754-3.748-2.639c-2.576-1.707-4.693-4.074-6.832-6.089c-1.989-2.318-3.63-4.822-5.056-6.868
		c-1.876-3.978-2.958-6.706-2.958-6.706c-0.79-1.992,0.185-4.248,2.177-5.038C281.323,338.555,283.43,339.386,284.341,341.121z"/>
	<path fill="#4D4D4D" d="M350.307,613.026c0,0,1.685,2.901,3.918,7.403c0.514,1.213,1.232,2.136,1.923,3.275
		c0.716,1.101,1.375,2.324,2.109,3.57c0.643,1.287,1.7,2.458,2.529,3.784c0.898,1.286,1.751,2.655,2.722,3.932
		c2.044,2.458,3.997,5.066,6.137,7.244c2.032,2.298,4.14,4.253,5.927,5.998c3.717,3.294,6.362,5.443,6.362,5.443
		c0.2,0.163,0.231,0.457,0.068,0.658c-0.129,0.159-0.356,0.206-0.539,0.139c0,0-3.179-1.175-7.773-3.537
		c-1.131-0.628-2.357-1.309-3.653-2.03c-1.34-0.679-2.56-1.659-3.932-2.547c-1.343-0.925-2.792-1.831-4.056-2.991
		c-1.319-1.115-2.658-2.249-3.998-3.382c-1.283-1.197-2.457-2.505-3.678-3.745c-1.199-1.271-2.418-2.447-3.378-3.877
		c-0.996-1.376-2.008-2.687-2.877-3.99c-0.853-1.288-1.803-2.537-2.317-3.63c-2.344-4.445-3.711-7.51-3.711-7.51
		c-1.043-2.331,0.002-5.065,2.333-6.106C346.595,610.156,349.13,611.019,350.307,613.026z"/>
	<path fill="#4D4D4D" d="M511.828,721.729c-0.031-0.069-0.331-0.365-1.163-1.584c-0.787-1.146-1.728-2.793-2.515-5.011
		c-0.765-2.2-1.303-4.941-1.167-7.82c0.055-2.883,0.821-5.828,1.9-8.506c2.286-5.348,5.756-9.691,8.732-12.468
		c1.476-1.405,2.749-2.497,3.731-3.185l0.357-0.248l0.095-0.064l0.088-0.06l0.097-0.054l0.043-0.018
		c-0.019,0.086,0.276-0.347,0.754,0.391c-0.09,0.825-0.127,0.385-0.111,0.509c-0.092,0.094-0.128,0.112-0.183,0.155
		c-0.19,0.133-0.353,0.246-0.484,0.337c-0.261,0.173-0.401,0.266-0.401,0.266c-0.174,0.117-0.41,0.068-0.526-0.107
		c-0.093-0.139-0.076-0.323,0.022-0.449c0,0,0.102-0.129,0.292-0.37c0.09-0.12,0.202-0.269,0.333-0.444
		c0.023-0.035,0.055-0.095,0.055-0.095c0.022,0.119-0.011-0.326-0.1,0.491c0.48,0.733,0.776,0.297,0.758,0.38l0.036-0.014
		l0.061-0.028c0.058-0.04,0.017-0.001,0.017-0.001s-0.03,0.04-0.045,0.06l-0.232,0.311c-0.651,0.916-1.598,2.233-2.569,3.899
		c-1.896,3.336-4.263,7.902-5.096,12.593c-0.991,4.671-0.404,8.997,0.761,11.935c0.538,1.484,1.251,2.688,1.682,3.472
		c0.393,0.715,0.927,1.435,0.873,1.381c1.199,1.684,0.807,4.021-0.877,5.22C515.364,723.805,513.027,723.413,511.828,721.729z"/>
	<path fill="#4D4D4D" d="M541.43,658.157c0,0-0.525,0.739-1.509,2.125c-0.531,0.699-1.095,1.551-1.582,2.51
		c-0.568,0.947-1.241,2.02-1.824,3.403c-2.528,5.249-5.086,13.745-3.423,24.003c0.826,5.075,2.791,10.513,6.265,15.44
		c1.712,2.417,3.944,4.812,6.203,6.728c1.351,0.923,2.717,1.856,4.095,2.797c1.355,1.042,2.907,1.326,4.364,2.049
		c6.001,2.342,13.138,2.861,19.811,1.01c6.662-1.938,12.613-6.343,16.647-12.043c3.99-5.824,5.145-13.217,3.403-19.925
		c-1.723-6.637-6.226-12.563-12.261-15.318c-5.747-2.649-12.837-2.491-17.927,0.633c-5.161,2.938-8.707,8.07-8.976,13.206
		c-0.32,5.153,1.893,9.783,4.981,12.533c0.482,0.68,1.667,1.257,2.39,1.901c0.833,0.491,1.638,0.835,2.474,1.098
		c1.772,0.357,3.413,0.239,4.819-0.036c2.88-0.553,4.512-2.258,5.518-3.189c0.816-1.164,1.251-1.784,1.251-1.784l0.216-0.308
		c0.825-1.177,2.446-1.461,3.622-0.637c1.176,0.823,1.462,2.446,0.637,3.621c-0.158,0.226-0.355,0.425-0.563,0.584
		c0,0-0.86,0.648-2.472,1.865c-1.765,0.897-4.355,2.356-7.915,2.382c-1.754,0.063-3.639-0.284-5.585-0.882
		c-0.938-0.411-2.021-0.768-3-1.234c-0.895-0.623-1.782-0.885-2.715-1.941c-3.463-3.114-5.935-8.345-5.535-14.119
		c0.363-5.853,4.33-11.438,9.959-14.652c5.634-3.366,13.183-3.654,19.723-0.605c6.367,2.938,11.264,9.318,13.086,16.431
		c1.893,7.106,0.548,15.233-3.596,21.413c-4.241,6.127-10.506,10.843-17.599,12.987c-7.127,2.034-14.651,1.614-21.285-0.905
		c-1.591-0.752-3.449-1.212-4.767-2.213c-1.388-0.928-2.762-1.847-4.122-2.757c-2.816-2.202-5.067-4.441-7.094-7.008
		c-4.04-5.031-6.785-10.687-8.214-16.236c-1.453-5.555-1.51-10.955-0.872-15.607c0.741-4.638,1.959-8.635,3.545-11.635
		c1.411-3,3.124-5.521,4.136-6.701c1.058-1.331,1.622-2.041,1.622-2.041c0.875-1.101,2.477-1.286,3.578-0.411
		C542.001,655.532,542.204,657.062,541.43,658.157z"/>
	<path fill="#4D4D4D" d="M295.927,291.077c0,0-0.151-0.68-0.433-1.955c-0.142-0.638-0.315-1.425-0.52-2.348
		c-0.17-0.941-0.36-2.034-0.875-2.967c-0.444-1.001-0.912-2.11-1.381-3.344c-0.528-1.217-1.499-2.403-2.307-3.753
		c-0.737-1.432-1.994-2.58-3.193-3.908c-1.118-1.435-2.678-2.492-4.264-3.684c-3.133-2.436-7.234-4.094-11.755-5.031
		c-2.233-0.325-4.76-0.299-7.025-0.307c-1.235,0.233-2.483,0.467-3.743,0.705c-1.293,0.184-2.296,0.862-3.478,1.264
		c-4.529,1.997-8.679,5.599-11.29,10.231c-2.569,4.67-3.393,10.299-2.482,15.584c1.002,5.325,4.398,9.968,8.989,12.658
		c4.636,2.654,10.058,3.451,14.981,1.641c4.557-1.688,8.322-5.626,9.383-10.09c1.203-4.399,0.341-9.112-2.307-12.044
		c-2.626-2.971-6.344-4.283-9.514-4.097c-0.632-0.107-1.588,0.223-2.33,0.267c-0.717,0.187-1.343,0.436-1.94,0.748
		c-1.156,0.769-1.982,1.725-2.596,2.639c-1.263,1.865-1.223,3.676-1.264,4.729c0.189,1.075,0.29,1.648,0.29,1.648l0.05,0.286
		c0.191,1.086-0.535,2.123-1.621,2.313c-1.087,0.192-2.123-0.535-2.314-1.621c-0.036-0.208-0.038-0.424-0.011-0.623
		c0,0,0.115-0.819,0.33-2.354c0.471-1.447,1.086-3.645,3.004-5.594c0.918-0.986,2.131-1.823,3.512-2.555
		c0.731-0.288,1.514-0.679,2.299-0.961c0.824-0.148,1.449-0.486,2.528-0.421c3.572-0.192,7.757,1.304,10.677,4.656
		c2.987,3.372,3.868,8.562,2.559,13.365c-1.224,4.889-5.168,9.148-10.371,11.049c-1.293,0.564-2.578,0.584-3.882,0.906
		c-1.395-0.01-2.799-0.021-4.212-0.031c-1.356-0.301-2.741-0.546-4.093-0.912c-1.273-0.588-2.633-1.036-3.847-1.758
		c-4.891-2.828-8.58-7.964-9.695-13.573c-1.029-5.626-0.206-11.597,2.486-16.613c2.758-4.978,7.066-8.844,12.031-11.088
		c2.537-1.272,5.062-1.675,7.526-2.138c2.718-0.14,5.175-0.261,7.658-0.025c4.884,0.687,9.529,2.037,13.246,4.403
		c1.893,1.129,3.708,2.247,5.073,3.753c1.442,1.408,2.965,2.631,3.879,4.214c0.982,1.522,2.071,2.821,2.759,4.269
		c0.652,1.48,1.214,2.864,1.699,4.116c1.073,2.514,0.96,4.312,1.298,5.63c0.214,1.288,0.327,1.976,0.327,1.976
		c0.177,1.066-0.543,2.074-1.609,2.252C297.13,292.756,296.153,292.083,295.927,291.077z"/>
	<path fill="#4D4D4D" d="M268.798,436.35c0,0-0.925-0.868-2.66-2.496c-2.219-2.073-4.189-5.216-4.943-9.752
		c-0.133-2.239-0.261-4.783,0.74-7.293c0.446-1.599,1.118-2.334,1.701-3.609c0.754-1.118,1.754-2.435,2.843-3.46
		c2.2-2.106,5.154-3.601,8.459-4.398c3.393-0.632,6.959-0.311,10.574,1.214c2.952,1.342,6.521,3.851,8.752,7.076
		c2.185,3.268,3.928,7.176,4.035,11.449c0.212,1.05-0.08,2.116-0.105,3.185c-0.061,1.075-0.167,2.149-0.544,3.178
		c-0.35,1.086-0.502,2-1.034,3.24l-1.44,2.737c-0.751,1.867-2.569,3.596-3.929,5.391c-1.687,1.472-3.321,3.098-5.324,4.188
		c-3.866,2.501-8.509,3.601-13.188,3.942c-4.639-0.17-9.595-0.917-13.63-3.478c-8.337-4.267-14.913-12.757-17.022-22.168
		c-0.257-2.4-0.743-4.813-0.724-7.229c0.304-2.396,0.083-4.899,0.861-7.208l0.996-3.495c0.204-0.623,0.255-1.074,0.588-1.834
		l0.728-1.546c1.047-2.054,1.766-4.13,3.072-6.145c4.72-8.451,12.683-14.641,21.391-17.295c8.679-2.663,17.281-3.322,25.375-2.762
		c8.446,0.736,15.614,2.876,22.43,4.881c3.304,1.22,6.471,2.39,9.482,3.502c2.92,1.331,5.689,2.593,8.292,3.779
		c5.171,2.45,9.409,5.109,13.026,7.066c6.835,4.575,10.74,7.189,10.74,7.189c1.669,1.118,2.116,3.377,0.999,5.046
		c-1.118,1.669-3.377,2.116-5.046,0.999c-0.029-0.019-0.058-0.039-0.086-0.059l-0.253-0.183c0,0-3.646-2.62-10.028-7.208
		c-3.39-1.97-7.362-4.663-12.229-7.167c-2.453-1.219-5.063-2.516-7.815-3.884c-2.844-1.16-5.835-2.38-8.956-3.651
		c-6.31-2.111-13.498-4.426-20.808-5.317c-7.595-0.761-15.951-0.18-23.76,2.063c-7.836,2.207-14.9,7.581-19.219,14.884
		c-1.214,1.74-2.066,3.983-3.122,5.961l-0.757,1.532c-0.13,0.279-0.3,0.961-0.45,1.422l-0.941,3.082
		c-0.759,2.036-0.546,4.258-0.892,6.387c-0.058,2.151,0.358,4.305,0.519,6.466c1.828,8.595,7.411,15.986,15.11,20.056
		c3.665,2.383,7.945,2.961,12.058,3.19c4.123-0.302,8.249-1.215,11.682-3.423c1.782-0.939,3.24-2.412,4.73-3.663
		c1.142-1.598,2.623-2.68,3.478-4.7l1.456-2.728c0.259-0.639,0.529-1.743,0.799-2.581c0.347-0.886,0.434-1.814,0.486-2.743
		c0.018-0.922,0.312-1.843,0.113-2.753c-0.053-3.7-1.576-7.094-3.439-9.953c-2.079-2.886-4.488-4.703-7.751-6.288
		c-2.732-1.138-5.953-1.55-8.758-1.005c-2.792,0.673-5.313,1.907-7.187,3.685c-0.923,0.885-1.615,1.751-2.336,2.757
		c-0.494,1.096-1.484,2.393-1.506,3.207c-0.794,2.065-0.488,4.14-0.128,5.835c1.049,3.352,3.571,5.337,4.879,5.63
		c1.557,0.618,3.151,0.818,3.022,0.828c1.775,0.942,2.45,3.144,1.509,4.918C272.774,436.616,270.573,437.291,268.798,436.35z"/>
	<path fill="#4D4D4D" d="M410.876,663.697c5.181,5.052,11.148,9.482,17.826,13.008c10.486,5.471,22.466,8.868,34.911,9.067
		c12.707,0.185,25.419-1.376,37.796-5.549c3.128-0.895,6.037-2.364,9.067-3.566c2.856-1.55,5.861-2.88,8.549-4.752
		c5.571-3.425,10.662-7.691,15.012-12.649c8.927-9.769,14.516-22.471,16.711-35.802c0.975-6.702,1.215-13.542,0.724-20.384
		c-0.69-6.819-1.744-13.66-3.72-20.313c-3.638-13.387-9.896-26.07-17.326-37.918c-7.498-11.843-16.423-22.795-26.208-32.829
		c-9.522-10.017-21.418-17.469-33.216-24.926c-23.827-14.614-47.863-28.331-70.442-42.863
		c-22.658-14.446-43.354-30.677-60.536-48.672c-17.168-17.961-30.457-38.181-37.861-58.922c-7.536-20.714-9.097-41.356-7.598-59.077
		c1.251-17.835,5.118-32.982,8.458-45.345c3.599-12.313,7.224-21.703,8.809-28.579c1.833-6.747,2.245-10.722,2.245-10.722
		l0.011-0.102c0.719-6.948,6.934-11.997,13.882-11.278c6.948,0.719,11.997,6.934,11.278,13.882
		c-0.352,3.403-2.048,6.371-4.478,8.409c0,0-2.838,2.368-7.008,7.557c-4.091,5.21-8.909,13.548-13.646,24.756
		c-4.78,11.146-9.554,25.336-11.355,42.161c-1.864,16.763-0.487,36.189,6.517,55.796c6.868,19.637,19.384,39.058,35.922,56.585
		c16.552,17.557,36.685,33.598,58.977,48.008c22.281,14.536,46.15,28.35,70.068,43.219c11.79,7.578,24.123,15.341,34.241,25.965
		c10.012,10.303,19.177,21.578,26.908,33.836c7.664,12.267,14.15,25.449,17.951,39.502c2.054,6.977,3.17,14.2,3.879,21.423
		c0.51,7.257,0.249,14.553-0.816,21.735c-2.363,14.299-8.456,28.093-18.151,38.67c-4.727,5.363-10.244,9.963-16.231,13.635
		c-2.903,2-6.105,3.431-9.173,5.074c-3.223,1.287-6.344,2.833-9.653,3.783c-12.972,4.393-26.727,6.001-39.71,5.775
		c-13.301-0.262-26.224-3.818-37.299-9.939c-7.998-4.437-15.096-10.068-21.015-16.495"/>
	<path fill="#4D4D4D" d="M405.835,490.873c0,0,0.419,0.525,1.211,1.853c0.855,1.279,1.762,3.121,2.775,5.314
		c0.548,1.093,0.944,2.344,1.423,3.645c0.455,1.308,0.959,2.683,1.316,4.15c0.598,2.963,1.483,6.061,1.556,9.291
		c0.085,1.593,0.171,3.187,0.255,4.754c0.165,1.551-0.164,3.11-0.221,4.586c-0.13,1.472-0.257,2.896-0.377,4.245
		c-0.071,1.344-0.448,2.585-0.754,3.727c-1.186,4.567-2.076,7.477-2.076,7.477c-0.064,0.208-0.284,0.325-0.491,0.261
		c-0.168-0.051-0.276-0.204-0.279-0.37l-0.001-0.063c0,0-0.04-3.113,0.048-7.576c0.019-1.116,0.084-2.316-0.172-3.594
		c-0.15-1.262-0.308-2.594-0.472-3.972c-0.218-1.363-0.167-2.783-0.61-4.179c-0.354-1.392-0.714-2.807-1.073-4.22
		c-0.288-1.417-0.658-2.809-1.209-4.135c-0.505-1.332-0.918-2.659-1.336-3.933c-0.421-1.274-1.07-2.418-1.492-3.569
		c-0.471-1.132-0.856-2.232-1.38-3.158c-0.922-1.938-1.709-3.497-2.257-4.483c-0.488-1.006-0.999-1.737-0.965-1.715
		c-1.213-1.799-0.737-4.243,1.064-5.454c1.708-1.152,3.994-0.782,5.26,0.797L405.835,490.873z"/>
	<path fill="#4D4D4D" d="M399.442,561.137c0,0,0.271-0.489,0.777-1.407c0.254-0.46,0.566-1.026,0.934-1.692
		c0.403-0.653,0.877-1.407,1.071-2.24c0.287-0.831,0.605-1.75,0.95-2.753c0.32-1.017,0.354-2.25,0.573-3.495
		c0.31-1.254,0.182-2.613,0.171-4.054c0.098-1.46-0.265-2.933-0.611-4.49c-0.633-3.124-2.217-6.298-4.445-9.264
		c-1.173-1.381-2.71-2.707-4.072-3.913c-1.73-1.059-3.495-2.168-5.398-2.645c-3.79-1.199-8.202-1.232-12.235,0.174
		c-4.027,1.451-7.512,4.408-9.768,8.077c-2.222,3.742-2.64,8.342-1.3,12.401c1.386,4.06,4.232,7.418,8.159,8.94
		c3.643,1.402,8.003,1.026,11.01-1.101c3.061-2.014,5.042-5.312,5.002-8.484c-0.006-3.185-1.551-5.948-3.56-7.521
		c-1.953-1.882-4.359-1.992-6.078-1.441c-1.751,0.454-2.689,1.566-3.272,2.179c-0.457,0.748-0.7,1.148-0.7,1.148l-0.121,0.198
		c-0.461,0.757-1.449,0.996-2.205,0.534c-0.757-0.461-0.996-1.448-0.534-2.205c0.088-0.145,0.202-0.276,0.324-0.381
		c0,0,0.504-0.434,1.449-1.244c1.052-0.622,2.589-1.621,4.78-1.778c2.066-0.169,4.877,0.325,7.117,2.054
		c2.255,1.781,3.983,4.903,3.965,8.474c0.011,3.618-2.214,7.214-5.551,9.414c-3.333,2.298-7.971,2.772-12.116,1.155
		c-3.935-1.486-7.37-5.325-8.712-9.592c-1.448-4.3-0.945-9.355,1.36-13.327c2.366-3.938,6.032-7.1,10.316-8.694
		c4.304-1.538,8.953-1.581,13.138-0.299c2.204,0.58,3.94,1.678,5.671,2.707c1.713,1.358,3.259,2.59,4.63,4.05
		c2.58,3.005,4.67,6.285,5.618,9.692c0.518,1.689,1.036,3.318,1.07,4.95c0.128,1.61,0.418,3.158,0.123,4.596
		c-0.227,1.437-0.269,2.796-0.632,4.029c-0.419,1.23-0.804,2.359-1.153,3.379c-0.663,2.095-1.681,3.125-2.182,4.095
		c-0.555,0.891-0.851,1.365-0.851,1.365c-0.459,0.737-1.428,0.962-2.165,0.504C399.276,562.788,399.045,561.864,399.442,561.137z"/>
	<path fill="#4D4D4D" d="M550.306,144.674c-5.181-5.052-11.148-9.482-17.826-13.008c-10.486-5.471-22.466-8.868-34.911-9.067
		c-12.707-0.185-25.419,1.376-37.796,5.549c-3.128,0.895-6.037,2.364-9.067,3.566c-2.856,1.55-5.861,2.88-8.55,4.752
		c-5.571,3.425-10.662,7.691-15.011,12.649c-8.927,9.769-14.516,22.471-16.711,35.802c-0.975,6.702-1.215,13.542-0.724,20.384
		c0.69,6.819,1.744,13.66,3.72,20.313c3.638,13.387,9.896,26.07,17.327,37.918c7.498,11.843,16.423,22.795,26.208,32.829
		c9.522,10.017,21.418,17.469,33.216,24.926c23.827,14.614,47.863,28.331,70.442,42.863c22.658,14.446,43.354,30.677,60.536,48.672
		c17.168,17.961,30.457,38.181,37.861,58.922c7.536,20.714,9.097,41.356,7.598,59.077c-1.251,17.835-5.118,32.982-8.458,45.345
		c-3.599,12.313-7.224,21.703-8.809,28.579c-1.833,6.747-2.245,10.722-2.245,10.722l-0.011,0.102
		c-0.719,6.948-6.934,11.997-13.882,11.278c-6.948-0.719-11.997-6.934-11.278-13.882c0.352-3.403,2.048-6.371,4.478-8.409
		c0,0,2.838-2.368,7.008-7.556c4.091-5.21,8.909-13.548,13.646-24.756c4.78-11.146,9.554-25.336,11.355-42.161
		c1.864-16.763,0.487-36.189-6.517-55.796c-6.868-19.637-19.384-39.058-35.922-56.585c-16.552-17.557-36.685-33.598-58.977-48.008
		c-22.281-14.536-46.15-28.35-70.068-43.219c-11.79-7.578-24.123-15.341-34.241-25.965c-10.012-10.303-19.177-21.578-26.908-33.836
		c-7.664-12.267-14.15-25.449-17.951-39.502c-2.054-6.977-3.17-14.2-3.879-21.423c-0.51-7.257-0.249-14.553,0.816-21.735
		c2.363-14.299,8.456-28.093,18.151-38.67c4.727-5.363,10.244-9.963,16.231-13.635c2.903-2,6.105-3.431,9.173-5.074
		c3.223-1.287,6.344-2.833,9.653-3.783c12.972-4.393,26.727-6.001,39.71-5.775c13.301,0.262,26.224,3.818,37.299,9.939
		c7.998,4.437,15.096,10.068,21.015,16.495"/>
	<g>
		<path fill="#4D4D4D" d="M532.425,268.226c-11.036,5.216-20.771,5.916-27.056,5.38c-3.287-0.246-5.19-0.741-7.097-1.155
			c-1.738-0.458-2.635-0.694-2.635-0.694c-1.454-0.386-3.024-0.374-4.564,0.116c-4.302,1.37-6.679,5.967-5.308,10.269
			c1.37,4.302,5.967,6.679,10.269,5.309c0,0,0.883-0.281,2.596-0.826c1.54-0.476,4.764-1.262,8.098-2.367
			c6.902-2.164,16.719-5.637,27.798-12.105c11.099-6.288,23.347-16.684,32.082-32.177c4.975-8.594,8.557-18.976,10.026-30.228
			c-0.987-0.836-1.977-1.657-2.972-2.463c-1.036,11.619-4.562,22.385-9.719,31.171C555.396,253.307,543.181,262.828,532.425,268.226
			z"/>
		<path fill="#4D4D4D" d="M563.295,152.84c-0.356-0.526-0.642-1.08-1.011-1.6c-1.908-2.679-4.006-5.263-6.278-7.73l-5.7,1.163
			c2.174,2.119,4.165,4.376,6.056,6.693C558.664,151.846,560.958,152.318,563.295,152.84z"/>
	</g>
	<path fill="#4D4D4D" d="M496.016,121.224c0,0,2.414-0.061,6.638-0.168c2.106-0.11,4.675-0.09,7.666,0.094
		c2.998,0.024,6.342,0.431,10.006,0.954c3.62,0.62,7.58,1.455,11.588,2.59c3.99,1.16,8.199,2.383,12.552,3.649
		c4.341,1.187,8.781,2.549,13.372,3.646c4.594,1.143,9.167,2.377,13.909,3.393c2.375,0.581,4.704,1.046,6.944,1.362
		c2.262,0.381,4.504,0.774,6.776,0.934c2.26,0.246,4.492,0.459,6.655,0.427l3.18,0.041c1.252-0.035,2.018-0.093,3.083-0.207
		c4.011-0.42,7.791-1.405,10.844-2.858c3.066-1.451,5.295-3.368,6.498-5.325c2.419-3.843,1.619-8.418,0.662-11.68
		c-0.496-1.629-1.023-2.932-1.42-3.816c-0.395-0.885-0.606-1.357-0.606-1.357l-0.114-0.254c-1.556-3.481,0.005-7.565,3.487-9.121
		c3.481-1.555,7.565,0.006,9.12,3.487c0.07,0.155,0.138,0.327,0.195,0.485c0,0,0.233,0.649,0.67,1.866
		c0.43,1.218,1.022,3.046,1.561,5.508c0.509,2.467,1.006,5.602,0.731,9.443c-0.234,3.788-1.57,8.451-4.578,12.403
		c-2.992,3.973-7.357,6.823-11.925,8.553c-4.604,1.747-9.5,2.56-14.506,2.705c-1.19,0.044-2.706,0.021-3.75-0.035
		c-1.326-0.074-2.483-0.244-3.741-0.366c-2.494-0.198-4.925-0.648-7.358-1.134c-2.448-0.398-4.879-1.044-7.312-1.685
		c-2.481-0.593-4.83-1.291-7.089-2.061c-4.613-1.512-9.227-3.024-13.768-4.512c-4.558-1.45-8.948-3.159-13.232-4.684
		c-4.228-1.588-8.314-3.123-12.189-4.579c-3.844-1.511-7.487-2.656-10.918-3.604c-3.445-0.841-6.634-1.56-9.517-1.865
		c-2.856-0.466-5.399-0.741-7.518-0.838c-4.213-0.31-6.62-0.486-6.62-0.486c-0.25-0.019-0.437-0.236-0.419-0.486
		C495.59,121.411,495.787,121.231,496.016,121.224z"/>
	<path fill="#4D4D4D" d="M704.781,611.819c0,0-0.279-0.13-0.803-0.375c-0.615-0.288-1.4-0.723-2.323-1.241
		c-1.89-1.053-4.44-2.699-7.284-4.927c-1.43-1.109-2.902-2.396-4.43-3.787c-1.563-1.351-2.992-3.016-4.557-4.626
		c-1.393-1.787-2.987-3.476-4.251-5.496c-1.346-1.947-2.669-3.938-3.802-6.059c-1.226-2.05-2.216-4.233-3.163-6.375
		c-1.06-2.08-1.646-4.346-2.359-6.432c-0.756-2.073-1.116-4.204-1.541-6.165c-0.467-1.953-0.655-3.847-0.808-5.585
		c-0.141-1.738-0.397-3.29-0.386-4.699c0.019-1.4,0.037-2.62,0.051-3.624c0.06-1.985,0.093-3.119,0.093-3.119
		c0.011-0.358,0.31-0.64,0.668-0.63c0.286,0.009,0.523,0.201,0.602,0.46l0.02,0.068c0,0,0.323,1.069,0.889,2.941
		c0.268,0.924,0.593,2.045,0.965,3.331c0.351,1.279,1.009,2.661,1.574,4.179c0.578,1.517,1.215,3.139,2.133,4.757
		c0.9,1.619,1.573,3.407,2.715,5.059c1.073,1.675,2.044,3.446,3.306,5.087c1.185,1.68,2.383,3.367,3.79,4.908
		c1.275,1.625,2.717,3.114,4.148,4.55c1.373,1.48,2.934,2.752,4.292,4.092c2.895,2.524,5.582,4.882,8.088,6.636
		c2.428,1.853,4.564,3.214,6.003,4.168c0.687,0.432,1.226,0.773,1.593,1.005c0.398,0.241,0.61,0.37,0.61,0.37l0.253,0.153
		c3.051,1.851,4.023,5.824,2.173,8.875C711.317,612.158,707.726,613.183,704.781,611.819z"/>
	<path fill="#4D4D4D" d="M555.346,317.496c0,0-0.419-0.525-1.21-1.852c-0.856-1.279-1.762-3.123-2.776-5.314
		c-0.548-1.093-0.944-2.344-1.423-3.645c-0.455-1.309-0.96-2.683-1.316-4.15c-0.598-2.963-1.483-6.061-1.556-9.291
		c-0.086-1.593-0.171-3.186-0.255-4.754c-0.165-1.551,0.164-3.11,0.221-4.586c0.131-1.472,0.257-2.896,0.377-4.245
		c0.071-1.345,0.447-2.585,0.754-3.727c1.186-4.567,2.076-7.477,2.076-7.477c0.063-0.208,0.284-0.325,0.491-0.261
		c0.168,0.051,0.276,0.204,0.279,0.37l0.001,0.063c0,0,0.04,3.113-0.048,7.576c-0.019,1.116-0.084,2.316,0.172,3.594
		c0.15,1.262,0.308,2.594,0.472,3.972c0.218,1.363,0.167,2.783,0.61,4.179c0.354,1.392,0.714,2.807,1.073,4.22
		c0.288,1.417,0.659,2.809,1.209,4.135c0.505,1.332,0.918,2.658,1.336,3.933c0.42,1.274,1.07,2.418,1.492,3.569
		c0.471,1.132,0.856,2.23,1.38,3.158c0.922,1.938,1.708,3.497,2.257,4.483c0.488,1.006,0.999,1.737,0.966,1.714
		c1.213,1.801,0.737,4.243-1.064,5.456c-1.708,1.152-3.994,0.782-5.26-0.797L555.346,317.496z"/>
	<path fill="#4D4D4D" d="M676.842,467.249c0,0-1.355-2.604-3.135-6.625c-0.531-0.779-1.107-1.623-1.715-2.516
		c-0.639-0.883-1.108-1.911-1.854-2.908c-0.817-0.981-1.678-1.985-2.497-3.069c-0.793-1.106-1.697-2.159-2.722-3.118
		c-0.97-1.025-1.939-2.049-2.893-3.057c-1.052-0.927-2.088-1.839-3.09-2.722c-1.994-1.802-4.056-3.278-5.741-4.684
		c-3.567-2.596-5.946-4.328-5.946-4.328c-0.175-0.128-0.214-0.373-0.086-0.548c0.102-0.14,0.293-0.189,0.449-0.139
		c0,0,2.809,0.902,6.96,2.616c2.023,0.952,4.517,1.885,6.927,3.381c1.234,0.715,2.509,1.454,3.805,2.204
		c1.236,0.871,2.492,1.754,3.748,2.639c2.576,1.707,4.693,4.074,6.832,6.089c1.989,2.318,3.63,4.822,5.056,6.868
		c1.876,3.978,2.958,6.706,2.958,6.706c0.791,1.992-0.184,4.248-2.177,5.039C679.859,469.815,677.753,468.985,676.842,467.249z"/>
	<path fill="#4D4D4D" d="M449.354,86.641c0.03,0.069,0.331,0.363,1.163,1.584c0.787,1.147,1.728,2.793,2.515,5.011
		c0.764,2.2,1.303,4.941,1.167,7.82c-0.055,2.882-0.821,5.828-1.9,8.506c-2.286,5.348-5.756,9.691-8.732,12.468
		c-1.475,1.405-2.749,2.497-3.73,3.185l-0.356,0.248l-0.095,0.064l-0.088,0.06l-0.097,0.054l-0.043,0.018
		c0.019-0.086-0.276,0.347-0.754-0.391c0.09-0.825,0.127-0.385,0.11-0.509c0.093-0.095,0.129-0.112,0.184-0.157
		c0.19-0.132,0.353-0.244,0.484-0.336c0.262-0.173,0.402-0.266,0.402-0.266c0.174-0.117,0.41-0.069,0.525,0.107
		c0.093,0.139,0.076,0.323-0.022,0.449c0,0-0.101,0.129-0.291,0.37c-0.09,0.12-0.202,0.269-0.333,0.444
		c-0.023,0.035-0.055,0.095-0.055,0.095c-0.022-0.119,0.011,0.326,0.1-0.491c-0.48-0.733-0.776-0.297-0.758-0.38l-0.036,0.014
		l-0.061,0.028c-0.058,0.04-0.018,0.001-0.018,0.001s0.031-0.04,0.046-0.06l0.232-0.311c0.651-0.916,1.598-2.234,2.569-3.899
		c1.896-3.336,4.263-7.902,5.096-12.593c0.991-4.671,0.403-8.997-0.761-11.935c-0.538-1.484-1.251-2.688-1.682-3.472
		c-0.393-0.715-0.927-1.435-0.873-1.381c-1.199-1.684-0.807-4.021,0.876-5.22C445.818,84.565,448.155,84.957,449.354,86.641z"/>
	<path fill="#4D4D4D" d="M419.752,150.213c0,0,0.525-0.739,1.509-2.125c0.531-0.699,1.095-1.551,1.581-2.51
		c0.568-0.947,1.242-2.02,1.825-3.403c2.528-5.249,5.086-13.745,3.422-24.003c-0.826-5.075-2.79-10.513-6.264-15.44
		c-1.712-2.417-3.944-4.812-6.203-6.728c-1.351-0.923-2.717-1.856-4.096-2.798c-1.355-1.041-2.906-1.324-4.363-2.047
		c-6.001-2.342-13.139-2.861-19.811-1.01c-6.662,1.938-12.613,6.343-16.647,12.043c-3.99,5.823-5.145,13.217-3.403,19.925
		c1.722,6.637,6.226,12.563,12.261,15.318c5.747,2.649,12.837,2.49,17.927-0.633c5.162-2.938,8.707-8.07,8.977-13.206
		c0.32-5.153-1.893-9.783-4.981-12.533c-0.482-0.682-1.667-1.257-2.39-1.901c-0.833-0.491-1.638-0.835-2.474-1.098
		c-1.772-0.357-3.413-0.239-4.82,0.036c-2.88,0.553-4.511,2.258-5.518,3.189c-0.816,1.164-1.251,1.784-1.251,1.784l-0.216,0.308
		c-0.824,1.177-2.446,1.461-3.622,0.637c-1.177-0.825-1.462-2.446-0.637-3.621c0.158-0.226,0.355-0.425,0.563-0.584
		c0,0,0.86-0.648,2.471-1.865c1.766-0.897,4.356-2.356,7.915-2.382c1.754-0.063,3.639,0.284,5.585,0.882
		c0.938,0.411,2.021,0.768,3,1.234c0.895,0.623,1.782,0.885,2.715,1.941c3.463,3.114,5.936,8.345,5.535,14.119
		c-0.363,5.853-4.33,11.438-9.96,14.652c-5.634,3.366-13.183,3.654-19.722,0.605c-6.367-2.938-11.264-9.318-13.086-16.431
		c-1.893-7.106-0.548-15.233,3.595-21.413c4.241-6.127,10.506-10.843,17.6-12.987c7.127-2.034,14.651-1.614,21.285,0.905
		c1.591,0.752,3.449,1.212,4.767,2.213c1.388,0.929,2.762,1.847,4.122,2.757c2.816,2.202,5.067,4.441,7.093,7.008
		c4.04,5.031,6.785,10.687,8.214,16.236c1.453,5.555,1.51,10.955,0.872,15.607c-0.741,4.638-1.959,8.635-3.545,11.635
		c-1.411,3-3.124,5.521-4.136,6.701c-1.058,1.331-1.621,2.041-1.621,2.041c-0.875,1.101-2.477,1.286-3.578,0.411
		C419.181,152.839,418.978,151.309,419.752,150.213z"/>
	<path fill="#4D4D4D" d="M561.739,247.232c0,0-0.27,0.49-0.776,1.408c-0.254,0.46-0.566,1.026-0.933,1.692
		c-0.404,0.653-0.877,1.407-1.071,2.24c-0.287,0.831-0.605,1.751-0.951,2.753c-0.319,1.017-0.353,2.25-0.573,3.495
		c-0.31,1.254-0.183,2.613-0.171,4.054c-0.098,1.46,0.265,2.933,0.611,4.49c0.633,3.124,2.217,6.298,4.445,9.264
		c1.173,1.381,2.71,2.707,4.071,3.913c1.73,1.059,3.496,2.168,5.398,2.645c3.79,1.199,8.203,1.232,12.236-0.174
		c4.027-1.451,7.511-4.408,9.768-8.077c2.222-3.742,2.64-8.343,1.3-12.401c-1.386-4.06-4.232-7.418-8.159-8.94
		c-3.643-1.402-8.003-1.026-11.01,1.101c-3.061,2.014-5.042,5.312-5.003,8.484c0.006,3.185,1.551,5.948,3.561,7.521
		c1.953,1.882,4.359,1.992,6.078,1.441c1.751-0.454,2.689-1.566,3.272-2.179c0.457-0.748,0.7-1.148,0.7-1.148l0.121-0.198
		c0.462-0.757,1.449-0.996,2.206-0.534c0.756,0.461,0.996,1.449,0.534,2.205c-0.088,0.145-0.202,0.276-0.324,0.381
		c0,0-0.504,0.434-1.449,1.244c-1.052,0.621-2.589,1.621-4.78,1.778c-2.066,0.169-4.877-0.325-7.117-2.054
		c-2.255-1.781-3.983-4.903-3.965-8.474c-0.011-3.618,2.214-7.214,5.551-9.414c3.333-2.298,7.971-2.772,12.116-1.155
		c3.935,1.486,7.37,5.325,8.712,9.592c1.448,4.3,0.945,9.355-1.36,13.327c-2.366,3.938-6.031,7.1-10.316,8.694
		c-4.305,1.538-8.954,1.581-13.138,0.299c-2.204-0.58-3.94-1.678-5.671-2.707c-1.712-1.358-3.258-2.59-4.629-4.05
		c-2.58-3.005-4.67-6.285-5.618-9.692c-0.519-1.689-1.036-3.318-1.07-4.95c-0.128-1.61-0.418-3.158-0.123-4.596
		c0.227-1.437,0.268-2.796,0.631-4.029c0.42-1.23,0.805-2.359,1.153-3.379c0.663-2.095,1.681-3.125,2.181-4.095
		c0.556-0.891,0.851-1.365,0.851-1.365c0.459-0.737,1.428-0.962,2.165-0.504C561.905,245.583,562.137,246.506,561.739,247.232z"/>
	<path fill="#4D4D4D" d="M665.255,517.293c0,0,0.151,0.68,0.433,1.955c0.141,0.638,0.315,1.425,0.52,2.348
		c0.17,0.941,0.359,2.034,0.875,2.967c0.445,1.001,0.913,2.11,1.382,3.344c0.528,1.217,1.499,2.403,2.307,3.753
		c0.737,1.432,1.994,2.58,3.193,3.908c1.118,1.435,2.678,2.492,4.264,3.684c3.133,2.436,7.234,4.094,11.754,5.031
		c2.234,0.325,4.76,0.299,7.025,0.307c1.235-0.233,2.483-0.467,3.743-0.706c1.293-0.184,2.296-0.862,3.478-1.264
		c4.529-1.997,8.678-5.599,11.29-10.231c2.569-4.67,3.393-10.299,2.482-15.584c-1.002-5.325-4.397-9.968-8.989-12.658
		c-4.636-2.654-10.058-3.451-14.981-1.642c-4.557,1.688-8.323,5.626-9.383,10.09c-1.203,4.399-0.341,9.112,2.307,12.044
		c2.626,2.971,6.344,4.283,9.514,4.097c0.632,0.105,1.588-0.224,2.33-0.267c0.717-0.188,1.343-0.436,1.94-0.748
		c1.156-0.769,1.982-1.725,2.596-2.639c1.263-1.865,1.223-3.676,1.264-4.729c-0.189-1.075-0.29-1.649-0.29-1.649l-0.05-0.284
		c-0.191-1.086,0.535-2.123,1.621-2.313c1.087-0.192,2.123,0.534,2.314,1.621c0.036,0.208,0.038,0.424,0.011,0.623
		c0,0-0.115,0.82-0.33,2.354c-0.471,1.446-1.086,3.645-3.004,5.594c-0.919,0.986-2.131,1.823-3.512,2.555
		c-0.731,0.288-1.514,0.679-2.299,0.961c-0.825,0.148-1.449,0.486-2.529,0.421c-3.572,0.192-7.756-1.304-10.677-4.656
		c-2.987-3.372-3.868-8.562-2.559-13.365c1.224-4.889,5.168-9.148,10.371-11.049c1.293-0.564,2.578-0.584,3.882-0.906
		c1.395,0.01,2.8,0.02,4.213,0.031c1.356,0.301,2.74,0.546,4.092,0.912c1.274,0.588,2.633,1.036,3.847,1.758
		c4.892,2.828,8.581,7.964,9.695,13.573c1.029,5.626,0.206,11.597-2.486,16.613c-2.758,4.978-7.066,8.844-12.031,11.088
		c-2.537,1.272-5.062,1.675-7.526,2.138c-2.718,0.14-5.175,0.261-7.658,0.025c-4.884-0.687-9.529-2.037-13.246-4.403
		c-1.893-1.13-3.708-2.247-5.074-3.753c-1.441-1.408-2.965-2.631-3.879-4.214c-0.982-1.522-2.071-2.821-2.759-4.269
		c-0.652-1.48-1.214-2.865-1.699-4.116c-1.073-2.514-0.96-4.312-1.297-5.63c-0.214-1.288-0.327-1.976-0.327-1.976
		c-0.178-1.066,0.543-2.074,1.609-2.252C664.052,515.614,665.029,516.287,665.255,517.293z"/>
	<path fill="#4D4D4D" d="M692.384,372.02c0,0,0.925,0.868,2.66,2.496c2.219,2.073,4.189,5.216,4.943,9.751
		c0.133,2.239,0.261,4.784-0.739,7.294c-0.446,1.599-1.118,2.334-1.701,3.609c-0.754,1.118-1.754,2.435-2.843,3.46
		c-2.201,2.106-5.154,3.601-8.459,4.398c-3.393,0.632-6.959,0.311-10.574-1.214c-2.952-1.342-6.522-3.851-8.752-7.076
		c-2.185-3.268-3.928-7.176-4.035-11.449c-0.212-1.05,0.08-2.116,0.105-3.185c0.061-1.075,0.167-2.149,0.544-3.178
		c0.35-1.086,0.502-2,1.034-3.24l1.439-2.737c0.751-1.867,2.57-3.596,3.93-5.391c1.687-1.472,3.321-3.098,5.324-4.188
		c3.866-2.501,8.509-3.601,13.188-3.942c4.639,0.17,9.595,0.917,13.63,3.478c8.337,4.267,14.913,12.757,17.022,22.168
		c0.256,2.4,0.743,4.813,0.724,7.229c-0.305,2.396-0.083,4.899-0.861,7.206l-0.996,3.496c-0.204,0.623-0.254,1.074-0.587,1.834
		l-0.728,1.546c-1.047,2.054-1.767,4.13-3.072,6.145c-4.72,8.451-12.683,14.641-21.391,17.295
		c-8.678,2.663-17.28,3.322-25.375,2.762c-8.446-0.736-15.614-2.876-22.43-4.881c-3.304-1.22-6.47-2.39-9.481-3.502
		c-2.92-1.331-5.689-2.594-8.292-3.779c-5.171-2.45-9.409-5.109-13.027-7.066c-6.834-4.575-10.74-7.189-10.74-7.189
		c-1.669-1.118-2.116-3.377-0.999-5.046c1.118-1.669,3.376-2.116,5.046-0.999c0.029,0.019,0.058,0.039,0.086,0.059l0.253,0.183
		c0,0,3.646,2.62,10.028,7.208c3.389,1.97,7.362,4.663,12.228,7.166c2.453,1.22,5.064,2.517,7.815,3.886
		c2.844,1.16,5.835,2.38,8.955,3.651c6.311,2.111,13.498,4.426,20.809,5.317c7.595,0.761,15.951,0.18,23.76-2.063
		c7.835-2.207,14.9-7.581,19.219-14.884c1.214-1.74,2.066-3.983,3.122-5.961l0.757-1.532c0.13-0.279,0.3-0.961,0.45-1.422
		l0.941-3.082c0.759-2.036,0.546-4.258,0.892-6.387c0.058-2.151-0.358-4.305-0.519-6.466c-1.828-8.595-7.412-15.986-15.111-20.056
		c-3.665-2.383-7.944-2.961-12.057-3.19c-4.123,0.302-8.249,1.214-11.682,3.423c-1.782,0.939-3.24,2.412-4.73,3.663
		c-1.142,1.598-2.623,2.68-3.478,4.7l-1.457,2.728c-0.259,0.639-0.529,1.743-0.799,2.581c-0.347,0.886-0.434,1.814-0.486,2.743
		c-0.018,0.922-0.313,1.843-0.113,2.752c0.053,3.702,1.576,7.095,3.439,9.954c2.079,2.886,4.488,4.701,7.751,6.287
		c2.732,1.139,5.953,1.551,8.758,1.006c2.792-0.673,5.314-1.907,7.188-3.685c0.923-0.885,1.615-1.752,2.336-2.757
		c0.494-1.096,1.484-2.393,1.507-3.207c0.794-2.065,0.487-4.14,0.128-5.835c-1.049-3.352-3.571-5.337-4.879-5.63
		c-1.558-0.618-3.151-0.818-3.022-0.828c-1.774-0.942-2.45-3.144-1.508-4.918C688.408,371.755,690.609,371.079,692.384,372.02z"/>
	<path fill="#4D4D4D" d="M610.875,195.345c0,0-1.685-2.901-3.918-7.403c-0.514-1.213-1.233-2.136-1.923-3.275
		c-0.716-1.101-1.375-2.324-2.109-3.571c-0.643-1.286-1.7-2.458-2.529-3.783c-0.898-1.286-1.751-2.655-2.722-3.932
		c-2.044-2.458-3.997-5.066-6.137-7.244c-2.032-2.298-4.14-4.253-5.927-5.998c-3.717-3.296-6.362-5.443-6.362-5.443
		c-0.2-0.163-0.231-0.457-0.068-0.658c0.129-0.159,0.356-0.206,0.538-0.139c0,0,3.18,1.175,7.773,3.536
		c1.131,0.629,2.356,1.311,3.653,2.031c1.341,0.678,2.561,1.659,3.933,2.547c1.343,0.925,2.792,1.831,4.056,2.991
		c1.319,1.115,2.658,2.249,3.998,3.382c1.283,1.197,2.457,2.505,3.678,3.745c1.199,1.271,2.418,2.447,3.378,3.877
		c0.996,1.376,2.008,2.687,2.877,3.99c0.853,1.288,1.803,2.537,2.316,3.63c2.344,4.445,3.711,7.51,3.711,7.51
		c1.042,2.331-0.003,5.065-2.333,6.106C614.587,198.214,612.052,197.351,610.875,195.345z"/>
</g>
</svg>
